<svg width="212" height="167" viewBox="0 0 212 167" fill="none" xmlns="http://www.w3.org/2000/svg">
<g style="mix-blend-mode:hard-light" filter="url(#filter0_d_9_129)">
<path d="M12.919 155V128.818H31.1747V133.957H19.2472V139.327H30.2415V144.479H19.2472V149.861H31.1747V155H12.919ZM40.8011 155H34L42.8338 128.818H51.2585L60.0923 155H53.2912L47.142 135.415H46.9375L40.8011 155ZM39.8935 144.696H54.1094V149.503H39.8935V144.696ZM58.7852 133.957V128.818H80.9144V133.957H72.9755V155H66.7369V133.957H58.7852ZM99.9723 155.396C98.1314 155.396 96.5419 155.068 95.2038 154.412C93.8743 153.756 92.8516 152.874 92.1357 151.766C91.4197 150.649 91.0618 149.409 91.0618 148.045C91.0618 147.04 91.2578 146.153 91.6499 145.386C92.0504 144.611 92.6001 143.899 93.299 143.251C94.0064 142.595 94.8288 141.952 95.7663 141.321L101.263 137.805C101.886 137.413 102.325 137 102.58 136.565C102.844 136.131 102.977 135.696 102.977 135.261C102.977 134.793 102.793 134.366 102.427 133.983C102.069 133.599 101.536 133.412 100.829 133.42C100.377 133.42 99.9851 133.514 99.6527 133.702C99.3203 133.889 99.0604 134.141 98.8729 134.456C98.6939 134.771 98.6044 135.129 98.6044 135.53C98.6044 136.05 98.7536 136.582 99.0518 137.128C99.3501 137.673 99.7507 138.253 100.254 138.866C100.765 139.48 101.332 140.158 101.954 140.899L114.495 155H108.129L97.6328 143.609C97.0362 142.945 96.4098 142.199 95.7536 141.372C95.0973 140.545 94.5433 139.642 94.0916 138.662C93.6399 137.673 93.4141 136.599 93.4141 135.44C93.4141 134.136 93.7209 132.956 94.3345 131.899C94.9482 130.842 95.8089 130.003 96.9169 129.381C98.0334 128.75 99.3331 128.435 100.816 128.435C102.248 128.435 103.484 128.729 104.523 129.317C105.563 129.905 106.364 130.685 106.927 131.656C107.489 132.628 107.771 133.693 107.771 134.852C107.771 136.08 107.468 137.209 106.863 138.24C106.258 139.263 105.401 140.17 104.293 140.963L98.9112 144.811C98.3402 145.22 97.8928 145.659 97.5689 146.128C97.245 146.588 97.0831 147.091 97.0831 147.636C97.0831 148.199 97.2152 148.689 97.4794 149.107C97.7521 149.524 98.1357 149.852 98.63 150.091C99.1243 150.33 99.7038 150.449 100.369 150.449C101.255 150.449 102.141 150.24 103.028 149.822C103.914 149.396 104.724 148.8 105.457 148.033C106.19 147.257 106.778 146.341 107.221 145.284C107.664 144.219 107.886 143.051 107.886 141.781H112.923C112.923 143.349 112.756 144.807 112.424 146.153C112.092 147.491 111.593 148.693 110.928 149.759C110.272 150.815 109.458 151.693 108.487 152.392C108.18 152.562 107.881 152.724 107.592 152.878C107.302 153.031 107.004 153.193 106.697 153.364C105.691 154.088 104.6 154.608 103.424 154.923C102.256 155.239 101.106 155.396 99.9723 155.396ZM148.865 141.909C148.865 144.79 148.311 147.232 147.203 149.234C146.095 151.237 144.595 152.759 142.703 153.798C140.82 154.838 138.706 155.358 136.362 155.358C134.01 155.358 131.892 154.834 130.009 153.786C128.125 152.737 126.629 151.216 125.521 149.222C124.422 147.219 123.872 144.781 123.872 141.909C123.872 139.028 124.422 136.587 125.521 134.584C126.629 132.581 128.125 131.06 130.009 130.02C131.892 128.98 134.01 128.46 136.362 128.46C138.706 128.46 140.82 128.98 142.703 130.02C144.595 131.06 146.095 132.581 147.203 134.584C148.311 136.587 148.865 139.028 148.865 141.909ZM142.396 141.909C142.396 140.205 142.153 138.764 141.668 137.588C141.19 136.412 140.5 135.521 139.597 134.916C138.702 134.311 137.624 134.009 136.362 134.009C135.109 134.009 134.031 134.311 133.128 134.916C132.224 135.521 131.53 136.412 131.044 137.588C130.567 138.764 130.328 140.205 130.328 141.909C130.328 143.614 130.567 145.054 131.044 146.23C131.53 147.406 132.224 148.297 133.128 148.902C134.031 149.507 135.109 149.81 136.362 149.81C137.624 149.81 138.702 149.507 139.597 148.902C140.5 148.297 141.19 147.406 141.668 146.23C142.153 145.054 142.396 143.614 142.396 141.909ZM168.399 128.818H174.714V145.706C174.714 147.658 174.25 149.358 173.321 150.807C172.392 152.247 171.097 153.364 169.435 154.156C167.773 154.94 165.842 155.332 163.643 155.332C161.419 155.332 159.476 154.94 157.814 154.156C156.152 153.364 154.861 152.247 153.94 150.807C153.02 149.358 152.56 147.658 152.56 145.706V128.818H158.888V145.156C158.888 146.06 159.084 146.865 159.476 147.572C159.876 148.28 160.435 148.834 161.151 149.234C161.866 149.635 162.697 149.835 163.643 149.835C164.589 149.835 165.416 149.635 166.124 149.234C166.839 148.834 167.398 148.28 167.798 147.572C168.199 146.865 168.399 146.06 168.399 145.156V128.818ZM177.824 133.957V128.818H199.953V133.957H192.015V155H185.776V133.957H177.824Z" fill="#0C0B0B"/>
</g>
<path fill-rule="evenodd" clip-rule="evenodd" d="M137.406 0C154.75 0 166 11.25 166 28.5938V91.4062C166 108.75 154.75 120 137.406 120H74.5938C57.25 120 46 108.75 46 91.4062V28.5938C46 11.25 57.25 0 74.5938 0H137.406Z" fill="url(#paint0_radial_9_129)"/>
<path fill-rule="evenodd" clip-rule="evenodd" d="M113.957 31.7431L90.6809 38.5431C90.6809 38.5431 74.6859 42.5661 72.6739 62.0101C70.6629 81.4541 86.7539 89.9791 86.7539 89.9791C86.7539 89.9791 106.677 101.76 121.811 85.2851C121.811 85.2851 127.398 79.3271 128.409 74.8081C128.409 74.8081 129.469 71.7596 130.562 67.3391C132.799 58.2917 136.519 43.5834 140.988 38.1071C140.988 38.1071 138.645 37.2631 131.992 41.1051C131.992 41.1051 139.208 29.3921 137.99 24.0511C137.99 24.0511 129.919 33.3473 124.109 36.8153C124.109 36.8153 120.979 38.6422 121.253 37.3892C121.253 37.3892 129.301 29.6119 125.647 27.7299C125.647 27.7299 121.523 29.6361 113.957 31.7431ZM91.5595 64.8078C91.6815 72.1848 97.7557 74.5132 97.7557 74.5132C97.7557 74.5132 105.498 78.2822 109.47 70.0542C113.442 61.8262 113 53 113 53L98.144 55.9849C98.144 55.9849 91.4375 57.4318 91.5595 64.8078Z" fill="#EF6663"/>
<path fill-rule="evenodd" clip-rule="evenodd" d="M137.406 0C154.75 0 166 11.25 166 28.5938V91.4062C166 108.75 154.75 120 137.406 120H74.5938C57.25 120 46 108.75 46 91.4062V28.5938C46 11.25 57.25 0 74.5938 0H137.406Z" fill="#F06428"/>
<g filter="url(#filter1_i_9_129)">
<path fill-rule="evenodd" clip-rule="evenodd" d="M106.871 31.1941C102.345 31.1871 97.3078 27.9888 97.3078 27.9888C97.3078 27.9888 93.14 25.4602 90.28 24.7612C87.42 24.0622 88.564 26.2872 88.564 26.2872C88.564 26.2872 91.678 33.6592 88.31 29.9452C84.941 26.2312 80.81 22.7272 80.81 22.7272C80.81 22.7272 75.281 18.0242 72.993 18.0002C70.705 17.9762 72.103 19.8682 72.103 19.8682C72.103 19.8682 76.934 26.0962 70.658 21.6612C64.382 17.2262 59.445 18.0632 59.445 18.0632C50.408 19.5692 45.722 29.9452 45.722 29.9452L45 79.9232C45 79.9232 54.363 95.0708 70.658 94.8468C86.6954 94.6253 106.256 76.5999 106.871 76.0301C107.485 76.5999 127.046 94.6253 143.083 94.8468C159.378 95.0708 168.741 79.9232 168.741 79.9232L168.019 29.9452C168.019 29.9452 163.333 19.5692 154.296 18.0632C154.296 18.0632 149.359 17.2262 143.083 21.6612C136.807 26.0962 141.638 19.8682 141.638 19.8682C141.638 19.8682 143.036 17.9762 140.748 18.0002C138.46 18.0242 132.931 22.7272 132.931 22.7272C132.931 22.7272 128.8 26.2312 125.431 29.9452C122.063 33.6592 125.177 26.2872 125.177 26.2872C125.177 26.2872 126.321 24.0622 123.461 24.7612C120.601 25.4602 116.434 27.9888 116.434 27.9888C116.434 27.9888 111.396 31.1871 106.871 31.1941Z" fill="url(#paint1_linear_9_129)"/>
</g>
<g filter="url(#filter2_i_9_129)">
<path fill-rule="evenodd" clip-rule="evenodd" d="M106.909 113C112.066 113 118.487 101.431 118.487 92.5948C118.487 83.7582 122.712 81 106.909 81C91.1052 81 95.5871 83.7582 95.5871 92.5948C95.5871 101.431 101.751 113 106.909 113Z" fill="#139500"/>
</g>
<path fill-rule="evenodd" clip-rule="evenodd" d="M106.916 103C111.644 103 117.53 95.0466 117.53 88.9714C117.53 82.8963 121.403 81 106.916 81C92.4298 81 96.5381 82.8963 96.5381 88.9714C96.5381 95.0466 102.189 103 106.916 103Z" fill="#F49000"/>
<path fill-rule="evenodd" clip-rule="evenodd" d="M93.4921 80.2891C97.0094 70.6997 106.679 70.9979 106.996 71.0103C106.996 71.0036 116.932 70.5325 120.508 80.2821C124.039 89.9095 107.421 96.733 107.004 96.9025C107.004 96.9127 89.916 90.0387 93.4921 80.2891Z" fill="#FFC200"/>
<path fill-rule="evenodd" clip-rule="evenodd" d="M107 79C109.761 79 112 77.8807 112 76.5C112 75.1193 109.761 74 107 74C104.239 74 102 75.1193 102 76.5C102 77.8807 104.239 79 107 79Z" fill="#FFF4BA" stroke="#FFFCE7" stroke-width="0.5"/>
<g filter="url(#filter3_d_9_129)">
<path fill-rule="evenodd" clip-rule="evenodd" d="M73 81C82.9411 81 91 71.3741 91 59.5C91 47.6259 82.9411 38 73 38C63.0589 38 55 47.6259 55 59.5C55 71.3741 63.0589 81 73 81Z" fill="white"/>
<g filter="url(#filter4_i_9_129)">
<path fill-rule="evenodd" clip-rule="evenodd" d="M73 72C78.5228 72 83 66.6274 83 60C83 53.3726 78.5228 48 73 48C67.4772 48 63 53.3726 63 60C63 66.6274 67.4772 72 73 72Z" fill="#3E3E3E"/>
</g>
<path fill-rule="evenodd" clip-rule="evenodd" d="M66.5 57C68.9853 57 71 54.9853 71 52.5C71 50.0147 68.9853 48 66.5 48C64.0147 48 62 50.0147 62 52.5C62 54.9853 64.0147 57 66.5 57Z" fill="white"/>
</g>
<g filter="url(#filter5_d_9_129)">
<path fill-rule="evenodd" clip-rule="evenodd" d="M141 81C150.941 81 159 71.3741 159 59.5C159 47.6259 150.941 38 141 38C131.059 38 123 47.6259 123 59.5C123 71.3741 131.059 81 141 81Z" fill="white"/>
<g filter="url(#filter6_i_9_129)">
<path fill-rule="evenodd" clip-rule="evenodd" d="M141 72C146.523 72 151 66.6274 151 60C151 53.3726 146.523 48 141 48C135.477 48 131 53.3726 131 60C131 66.6274 135.477 72 141 72Z" fill="#3E3E3E"/>
</g>
<path fill-rule="evenodd" clip-rule="evenodd" d="M134.5 57C136.985 57 139 54.9853 139 52.5C139 50.0147 136.985 48 134.5 48C132.015 48 130 50.0147 130 52.5C130 54.9853 132.015 57 134.5 57Z" fill="white"/>
</g>
<defs>
<filter id="filter0_d_9_129" x="8.91903" y="128.435" width="195.034" height="34.9616" filterUnits="userSpaceOnUse" color-interpolation-filters="sRGB">
<feFlood flood-opacity="0" result="BackgroundImageFix"/>
<feColorMatrix in="SourceAlpha" type="matrix" values="0 0 0 0 0 0 0 0 0 0 0 0 0 0 0 0 0 0 127 0" result="hardAlpha"/>
<feOffset dy="4"/>
<feGaussianBlur stdDeviation="2"/>
<feComposite in2="hardAlpha" operator="out"/>
<feColorMatrix type="matrix" values="0 0 0 0 0 0 0 0 0 0 0 0 0 0 0 0 0 0 0.25 0"/>
<feBlend mode="normal" in2="BackgroundImageFix" result="effect1_dropShadow_9_129"/>
<feBlend mode="normal" in="SourceGraphic" in2="effect1_dropShadow_9_129" result="shape"/>
</filter>
<filter id="filter1_i_9_129" x="45" y="18" width="123.741" height="77.8493" filterUnits="userSpaceOnUse" color-interpolation-filters="sRGB">
<feFlood flood-opacity="0" result="BackgroundImageFix"/>
<feBlend mode="normal" in="SourceGraphic" in2="BackgroundImageFix" result="shape"/>
<feColorMatrix in="SourceAlpha" type="matrix" values="0 0 0 0 0 0 0 0 0 0 0 0 0 0 0 0 0 0 127 0" result="hardAlpha"/>
<feOffset dy="1"/>
<feGaussianBlur stdDeviation="2"/>
<feComposite in2="hardAlpha" operator="arithmetic" k2="-1" k3="1"/>
<feColorMatrix type="matrix" values="0 0 0 0 0.643137 0 0 0 0 0.92549 0 0 0 0 0 0 0 0 1 0"/>
<feBlend mode="normal" in2="shape" result="effect1_innerShadow_9_129"/>
</filter>
<filter id="filter2_i_9_129" x="95" y="81" width="23.9999" height="32" filterUnits="userSpaceOnUse" color-interpolation-filters="sRGB">
<feFlood flood-opacity="0" result="BackgroundImageFix"/>
<feBlend mode="normal" in="SourceGraphic" in2="BackgroundImageFix" result="shape"/>
<feColorMatrix in="SourceAlpha" type="matrix" values="0 0 0 0 0 0 0 0 0 0 0 0 0 0 0 0 0 0 127 0" result="hardAlpha"/>
<feOffset/>
<feGaussianBlur stdDeviation="1.5"/>
<feComposite in2="hardAlpha" operator="arithmetic" k2="-1" k3="1"/>
<feColorMatrix type="matrix" values="0 0 0 0 0 0 0 0 0 0 0 0 0 0 0 0 0 0 0.0948256 0"/>
<feBlend mode="normal" in2="shape" result="effect1_innerShadow_9_129"/>
</filter>
<filter id="filter3_d_9_129" x="51" y="35" width="44" height="51" filterUnits="userSpaceOnUse" color-interpolation-filters="sRGB">
<feFlood flood-opacity="0" result="BackgroundImageFix"/>
<feColorMatrix in="SourceAlpha" type="matrix" values="0 0 0 0 0 0 0 0 0 0 0 0 0 0 0 0 0 0 127 0" result="hardAlpha"/>
<feOffset dy="1"/>
<feGaussianBlur stdDeviation="2"/>
<feColorMatrix type="matrix" values="0 0 0 0 0.585892 0 0 0 0 0.888951 0 0 0 0 0.00308664 0 0 0 1 0"/>
<feBlend mode="normal" in2="BackgroundImageFix" result="effect1_dropShadow_9_129"/>
<feBlend mode="normal" in="SourceGraphic" in2="effect1_dropShadow_9_129" result="shape"/>
</filter>
<filter id="filter4_i_9_129" x="63" y="48" width="20" height="24" filterUnits="userSpaceOnUse" color-interpolation-filters="sRGB">
<feFlood flood-opacity="0" result="BackgroundImageFix"/>
<feBlend mode="normal" in="SourceGraphic" in2="BackgroundImageFix" result="shape"/>
<feColorMatrix in="SourceAlpha" type="matrix" values="0 0 0 0 0 0 0 0 0 0 0 0 0 0 0 0 0 0 127 0" result="hardAlpha"/>
<feOffset/>
<feGaussianBlur stdDeviation="2"/>
<feComposite in2="hardAlpha" operator="arithmetic" k2="-1" k3="1"/>
<feColorMatrix type="matrix" values="0 0 0 0 0 0 0 0 0 0 0 0 0 0 0 0 0 0 0.5 0"/>
<feBlend mode="normal" in2="shape" result="effect1_innerShadow_9_129"/>
</filter>
<filter id="filter5_d_9_129" x="119" y="35" width="44" height="51" filterUnits="userSpaceOnUse" color-interpolation-filters="sRGB">
<feFlood flood-opacity="0" result="BackgroundImageFix"/>
<feColorMatrix in="SourceAlpha" type="matrix" values="0 0 0 0 0 0 0 0 0 0 0 0 0 0 0 0 0 0 127 0" result="hardAlpha"/>
<feOffset dy="1"/>
<feGaussianBlur stdDeviation="2"/>
<feColorMatrix type="matrix" values="0 0 0 0 0.585892 0 0 0 0 0.888951 0 0 0 0 0.00308664 0 0 0 1 0"/>
<feBlend mode="normal" in2="BackgroundImageFix" result="effect1_dropShadow_9_129"/>
<feBlend mode="normal" in="SourceGraphic" in2="effect1_dropShadow_9_129" result="shape"/>
</filter>
<filter id="filter6_i_9_129" x="131" y="48" width="20" height="24" filterUnits="userSpaceOnUse" color-interpolation-filters="sRGB">
<feFlood flood-opacity="0" result="BackgroundImageFix"/>
<feBlend mode="normal" in="SourceGraphic" in2="BackgroundImageFix" result="shape"/>
<feColorMatrix in="SourceAlpha" type="matrix" values="0 0 0 0 0 0 0 0 0 0 0 0 0 0 0 0 0 0 127 0" result="hardAlpha"/>
<feOffset/>
<feGaussianBlur stdDeviation="2"/>
<feComposite in2="hardAlpha" operator="arithmetic" k2="-1" k3="1"/>
<feColorMatrix type="matrix" values="0 0 0 0 0 0 0 0 0 0 0 0 0 0 0 0 0 0 0.5 0"/>
<feBlend mode="normal" in2="shape" result="effect1_innerShadow_9_129"/>
</filter>
<radialGradient id="paint0_radial_9_129" cx="0" cy="0" r="1" gradientUnits="userSpaceOnUse" gradientTransform="translate(71.5252 94.9428) rotate(-45.175) scale(121.905 69.7266)">
<stop stop-color="#1B373F"/>
<stop offset="0.377492" stop-color="#18333C"/>
<stop offset="1" stop-color="#071724"/>
</radialGradient>
<linearGradient id="paint1_linear_9_129" x1="45" y1="18" x2="45" y2="94.8492" gradientUnits="userSpaceOnUse">
<stop stop-color="#A4EC00"/>
<stop offset="1" stop-color="#6ACC00"/>
</linearGradient>
</defs>
</svg>
