<svg width="475" height="83" viewBox="0 0 475 83" fill="none" xmlns="http://www.w3.org/2000/svg">
<g style="mix-blend-mode:difference" filter="url(#filter0_d_11_9)">
<path d="M8.7 74H44V66H8.7V74ZM8.7 12H44V4H8.7V12ZM8.7 40H42V32H8.7V40ZM4 4V74H12.5V4H4ZM65.6805 53H102.68L99.6805 45H68.6805L65.6805 53ZM83.9805 19.8L95.9805 48L96.7805 50L106.98 74H116.48L83.9805 0.499999L51.4805 74H60.9805L71.3805 49.4L72.1805 47.6L83.9805 19.8ZM110.965 12H128.965V74H137.465V12H155.465V4H110.965V12ZM208.73 35.6L242.33 74H251.93L214.93 31.5C212.93 29.1667 211.03 26.9667 209.23 24.9C207.43 22.8333 206.53 20.6667 206.53 18.4C206.53 15.8667 207.296 13.8333 208.83 12.3C210.363 10.7667 212.496 10 215.23 10C217.096 10 218.663 10.3667 219.93 11.1C221.196 11.8333 222.163 12.8333 222.83 14.1C223.563 15.3667 223.93 16.8667 223.93 18.6C223.93 20.8667 222.83 23.2 220.63 25.6C218.496 27.9333 215.563 30.1667 211.83 32.3C210.496 33.0333 208.896 33.8667 207.03 34.8C205.163 35.6667 203.263 36.7 201.33 37.9C199.396 39.1 197.596 40.5333 195.93 42.2C194.33 43.8667 192.996 45.8 191.93 48C190.93 50.2 190.43 52.7667 190.43 55.7C190.43 59.6333 191.496 63.0667 193.63 66C195.83 68.8667 198.63 71.1 202.03 72.7C205.496 74.2333 209.13 75 212.93 75C217.396 75 221.496 74.1667 225.23 72.5C228.963 70.8333 232.43 68.6333 235.63 65.9C238.83 63.1667 241.83 60.1 244.63 56.7C247.43 53.2333 250.163 49.7667 252.83 46.3L246.63 42.4C244.23 45.6667 241.73 48.8 239.13 51.8C236.596 54.8 233.963 57.5 231.23 59.9C228.496 62.2333 225.63 64.1 222.63 65.5C219.696 66.9 216.63 67.6 213.43 67.6C210.763 67.6 208.33 67.1 206.13 66.1C203.93 65.1 202.163 63.6667 200.83 61.8C199.563 59.9333 198.93 57.7333 198.93 55.2C198.93 52.6667 199.53 50.5 200.73 48.7C201.93 46.9 203.463 45.3333 205.33 44C207.263 42.6 209.296 41.3667 211.43 40.3C213.563 39.1667 215.53 38.0667 217.33 37C219.663 35.6 221.73 34.2 223.53 32.8C225.33 31.3333 226.863 29.8333 228.13 28.3C229.396 26.7 230.363 25.1 231.03 23.5C231.696 21.9 232.03 20.2667 232.03 18.6C232.03 15.8 231.363 13.2333 230.03 10.9C228.696 8.49999 226.763 6.56666 224.23 5.1C221.763 3.63333 218.763 2.9 215.23 2.9C211.896 2.9 208.93 3.53333 206.33 4.8C203.796 6.06666 201.796 7.86666 200.33 10.2C198.863 12.5333 198.13 15.2667 198.13 18.4C198.13 20.9333 198.763 23.2667 200.03 25.4C201.363 27.5333 202.863 29.4667 204.53 31.2C206.263 32.8667 207.663 34.3333 208.73 35.6ZM296.891 39C296.891 33.7333 298.024 29.0333 300.291 24.9C302.624 20.7667 305.791 17.5 309.791 15.1C313.791 12.7 318.324 11.5 323.391 11.5C328.524 11.5 333.057 12.7 336.991 15.1C340.991 17.5 344.124 20.7667 346.391 24.9C348.724 29.0333 349.891 33.7333 349.891 39C349.891 44.2667 348.724 48.9667 346.391 53.1C344.124 57.2333 340.991 60.5 336.991 62.9C333.057 65.3 328.524 66.5 323.391 66.5C318.324 66.5 313.791 65.3 309.791 62.9C305.791 60.5 302.624 57.2333 300.291 53.1C298.024 48.9667 296.891 44.2667 296.891 39ZM287.891 39C287.891 44.0667 288.757 48.8 290.491 53.2C292.291 57.6 294.791 61.4333 297.991 64.7C301.191 67.9 304.957 70.4333 309.291 72.3C313.624 74.1 318.324 75 323.391 75C328.524 75 333.224 74.1 337.491 72.3C341.824 70.4333 345.591 67.9 348.791 64.7C351.991 61.4333 354.457 57.6 356.191 53.2C357.991 48.8 358.891 44.0667 358.891 39C358.891 33.8667 357.991 29.1333 356.191 24.8C354.457 20.4 351.991 16.6 348.791 13.4C345.591 10.1333 341.824 7.6 337.491 5.8C333.224 3.93333 328.524 3 323.391 3C318.324 3 313.624 3.93333 309.291 5.8C304.957 7.6 301.191 10.1333 297.991 13.4C294.791 16.6 292.291 20.4 290.491 24.8C288.757 29.1333 287.891 33.8667 287.891 39ZM370.395 4V51C370.395 54.4667 370.928 57.6667 371.995 60.6C373.128 63.5333 374.728 66.0667 376.795 68.2C378.928 70.3333 381.461 72 384.395 73.2C387.328 74.4 390.595 75 394.195 75C397.795 75 401.061 74.4 403.995 73.2C406.928 72 409.428 70.3333 411.495 68.2C413.628 66.0667 415.228 63.5333 416.295 60.6C417.428 57.6667 417.995 54.4667 417.995 51V4H409.495V51C409.495 55.8 408.195 59.6667 405.595 62.6C402.995 65.5333 399.195 67 394.195 67C389.195 67 385.395 65.5333 382.795 62.6C380.195 59.6667 378.895 55.8 378.895 51V4H370.395ZM426.492 12H444.492V74H452.992V12H470.992V4H426.492V12Z" fill="#F9620D"/>
</g>
<defs>
<filter id="filter0_d_11_9" x="0" y="0.5" width="474.992" height="82.5" filterUnits="userSpaceOnUse" color-interpolation-filters="sRGB">
<feFlood flood-opacity="0" result="BackgroundImageFix"/>
<feColorMatrix in="SourceAlpha" type="matrix" values="0 0 0 0 0 0 0 0 0 0 0 0 0 0 0 0 0 0 127 0" result="hardAlpha"/>
<feOffset dy="4"/>
<feGaussianBlur stdDeviation="2"/>
<feComposite in2="hardAlpha" operator="out"/>
<feColorMatrix type="matrix" values="0 0 0 0 0 0 0 0 0 0 0 0 0 0 0 0 0 0 0.25 0"/>
<feBlend mode="normal" in2="BackgroundImageFix" result="effect1_dropShadow_11_9"/>
<feBlend mode="normal" in="SourceGraphic" in2="effect1_dropShadow_11_9" result="shape"/>
</filter>
</defs>
</svg>
